# xmcd
#
# Track frame offsets:
#  150
#  27030
#  45627
#  87408
#  103753
#  131930
#  169899
#  187067
#  216014
#  241292
#  285499
#
# Disc length: 4458 seconds
#
# Revision: 0
# Processed by: cddbd v1.5.1PL2 Copyright (c) Steve Scherf et al.
# Submitted via: Collectorz.com_Music_Collector 6.10
#
DISCID=9d11680b
DTITLE=Bruce Springsteen - Devils and Dust Tour - Nov 11 2005 Tampa [CD2)
DYEAR=2005
DGENRE=Rock
TTITLE0=The Rising
TTITLE1=Lucky Town
TTITLE2=Jesus Was An Only Son
TTITLE3=Two Hearts
TTITLE4=The Hitter
TTITLE5=Matamoros Banks
TTITLE6=I Wanna Marry You
TTITLE7=Blinded By The Light
TTITLE8=Land Of Hope And Dreams
TTITLE9=The Promised Land
TTITLE10=Dream Baby Dream
EXTD=
EXTT0=
EXTT1=
EXTT2=
EXTT3=
EXTT4=
EXTT5=
EXTT6=
EXTT7=
EXTT8=
EXTT9=
EXTT10=
PLAYORDER=
